<svg width="129" height="185" viewBox="0 0 129 185" fill="none" xmlns="http://www.w3.org/2000/svg">
<path d="M48.047 7.99074L111.984 7.96948L112.025 16.0252L104.048 16.015L104.039 24.088C98.712 23.8667 93.3365 24.0837 88.0192 23.9925C88.0192 28.747 88.2225 35.4285 88.0035 40.032L88.0792 47.9547L96.0752 48.0227C96.0852 49.5725 96.2557 54.7017 96.087 55.9137C98.735 55.984 101.384 56.008 104.033 55.9855L104.049 64.0217C104.017 69.343 104.014 74.6642 104.038 79.9855L112.029 80.0195C112.031 85.2587 111.959 90.7462 112.049 95.9662L119.983 95.969L120.016 103.999L127.996 103.984L128.032 120.012L119.968 120.003L120.016 136.008L112.063 136.006C112.032 138.667 112.022 141.328 112.035 143.989L104.006 144.009L104.04 159.995L96.0182 160.011C96.0175 162.101 96.1247 166.039 95.9877 167.992L80.0187 168.015C74.6867 167.947 69.3542 167.956 64.0225 168.041C63.9647 170.661 64.0092 173.374 64.0172 176.002L71.985 175.989L72.0137 184.006L48.0592 183.997L48.0255 176.007L32.043 175.994L32.0167 168.012L24.0632 167.994L24.024 160.01L16.0537 160.004L16.0327 144.004L24.0377 143.987L24.042 104.014C21.3542 103.989 18.666 103.989 15.9782 104.015L16.0307 136.008L8.04422 135.996L8.02172 120.008L0.0467246 120.003C-0.0402754 114.727 0.0212224 109.287 0.0194724 103.998L8.03472 103.988L8.03547 87.9947L16.022 87.9795L16.021 71.997L24.0202 71.9895L24.0345 55.9967L32.0272 55.9845L32.0217 39.997L40.0225 39.9892L40.0082 15.9937L48.0282 15.9892L48.047 7.99074Z" fill="#FEFEFE"/>
<path d="M48.047 7.99074L111.984 7.96948L112.025 16.0252L104.048 16.015L104.039 24.088C98.712 23.8667 93.3365 24.0837 88.0192 23.9925C88.0192 28.747 88.2225 35.4285 88.0035 40.032L72.0275 40.0145L72.0262 47.9972L64.0397 48.0132L64.032 63.996L56.0272 64.0105L56.045 79.9955L48.027 80.0085L48.0457 143.991L56.022 143.998L56.0465 159.992L64.0277 159.999L64.0225 168.041C63.9647 170.661 64.0092 173.374 64.0172 176.002L71.985 175.989L72.0137 184.006L48.0592 183.997L48.0255 176.007L32.043 175.994L32.0167 168.012L24.0632 167.994L24.024 160.01L16.0537 160.004L16.0327 144.004L24.0377 143.987L24.042 104.014C21.3542 103.989 18.666 103.989 15.9782 104.015L16.0307 136.008L8.04422 135.996L8.02172 120.008L0.0467246 120.003C-0.0402754 114.727 0.0212224 109.287 0.0194724 103.998L8.03472 103.988L8.03547 87.9947L16.022 87.9795L16.021 71.997L24.0202 71.9895L24.0345 55.9967L32.0272 55.9845L32.0217 39.997L40.0225 39.9892L40.0082 15.9937L48.0282 15.9892L48.047 7.99074Z" fill="#6A8DB6"/>
<path d="M80.0396 16.0103L104.048 16.015L104.039 24.088C98.7118 23.8668 93.3363 24.0838 88.019 23.9925L80.0535 23.9818L80.0396 16.0103Z" fill="#EADB4B"/>
<path d="M56.0312 16.0182C58.6653 15.9752 61.3788 16.0145 64.0195 16.0197L64.0148 23.9779L56.0485 23.9875L56.0312 16.0182Z" fill="#FEFEFE"/>
<path d="M16.0249 104.02C18.6589 103.977 21.3724 104.016 24.0132 104.021L24.0084 111.98L16.0422 111.989L16.0249 104.02Z" fill="#6A8DB6"/>
<path d="M16.0249 112.02C18.6589 111.977 21.3724 112.016 24.0132 112.021L24.0084 119.98L16.0422 119.989L16.0249 112.02Z" fill="#6A8DB6"/>
<path d="M16.0249 120.02C18.6589 119.977 21.3724 120.016 24.0132 120.021L24.0084 127.98L16.0422 127.989L16.0249 120.02Z" fill="#6A8DB6"/>
<path d="M56.0312 0.0199085C58.6653 -0.0230915 61.3788 0.0161615 64.0195 0.0214115L64.0148 7.97966L56.0485 7.98916L56.0312 0.0199085Z" fill="#6A8DB6"/>
<path d="M64.0249 0.0199085C66.6589 -0.0230915 69.3724 0.0161615 72.0132 0.0214115L72.0084 7.97966L64.0422 7.98916L64.0249 0.0199085Z" fill="#6A8DB6"/>
<path d="M72.0186 0.0199085C74.6526 -0.0230915 77.3661 0.0161615 80.0068 0.0214115L80.0021 7.97966L72.0358 7.98916L72.0186 0.0199085Z" fill="#6A8DB6"/>
<path d="M80.0127 0.0199085C82.6467 -0.0230915 85.3602 0.0161615 88.0009 0.0214115L87.9962 7.97966L80.0299 7.98916L80.0127 0.0199085Z" fill="#6A8DB6"/>
<path d="M72.0277 40.0145L88.0037 40.032L88.0795 47.9548L96.0755 48.0228C96.0855 49.5725 96.256 54.7018 96.0872 55.9138C98.7352 55.984 101.384 56.008 104.033 55.9855L104.049 64.0218C101.394 63.9203 98.7162 63.975 96.058 64.0028C96.0322 62.3273 96.1532 57.3895 95.9012 56.0393C87.983 56.2218 79.9705 55.92 71.9987 56.0823L72.0842 64.014C69.6457 64.0328 66.4087 64.1503 64.0322 63.996L64.04 48.0133L72.0265 47.9973L72.0277 40.0145Z" fill="#EADB4B"/>
<path d="M112.05 95.9663L119.983 95.9691L120.016 103.999L127.996 103.985L128.032 120.012L119.968 120.004L120.017 136.008L112.064 136.006C111.829 123.044 111.985 108.954 112.05 95.9663Z" fill="#6A8DB6"/>
<path d="M80.0186 168.015L95.9876 167.992L96.0288 175.999L103.988 175.961L104.018 184.016L80.0583 183.993L80.0186 168.015Z" fill="#6A8DB6"/>
</svg>
