<svg width="286" height="285" viewBox="0 0 286 285" fill="none" xmlns="http://www.w3.org/2000/svg">
<rect width="285" height="285" transform="translate(0.5)" fill="white"/>
<rect x="31" y="165" width="15" height="15" fill="black"/>
<rect x="31" y="180" width="15" height="15" fill="black"/>
<rect x="31" y="195" width="15" height="15" fill="black"/>
<rect x="31" y="210" width="15" height="15" fill="black"/>
<rect x="46" y="225" width="15" height="15" fill="black"/>
<rect x="61" y="225" width="15" height="15" fill="black"/>
<rect x="76" y="225" width="15" height="15" fill="black"/>
<rect x="91" y="225" width="15" height="15" fill="black"/>
<rect x="106" y="225" width="15" height="15" fill="black"/>
<rect x="121" y="225" width="15" height="15" fill="black"/>
<rect x="136" y="225" width="15" height="15" fill="black"/>
<rect x="151" y="225" width="15" height="15" fill="black"/>
<rect x="166" y="225" width="15" height="15" fill="black"/>
<rect x="181" y="225" width="15" height="15" fill="black"/>
<rect x="196" y="225" width="15" height="15" fill="black"/>
<rect x="211" y="225" width="15" height="15" fill="black"/>
<rect x="226" y="210" width="15" height="15" fill="black"/>
<rect x="226" y="195" width="15" height="15" fill="black"/>
<rect x="226" y="180" width="15" height="15" fill="black"/>
<rect x="226" y="165" width="15" height="15" fill="black"/>
<rect x="226" y="150" width="15" height="15" fill="black"/>
<rect x="226" y="135" width="15" height="15" fill="black"/>
<rect x="226" y="120" width="15" height="15" fill="black"/>
<rect x="226" y="105" width="15" height="15" fill="black"/>
<rect x="226" y="90" width="15" height="15" fill="black"/>
<rect x="226" y="75" width="15" height="15" fill="black"/>
<rect x="226" y="60" width="15" height="15" fill="black"/>
<rect x="226" y="45" width="15" height="15" fill="black"/>
<rect x="211" y="30" width="15" height="15" fill="black"/>
<rect x="196" y="30" width="15" height="15" fill="black"/>
<rect x="181" y="30" width="15" height="15" fill="black"/>
<rect x="166" y="30" width="15" height="15" fill="black"/>
<rect x="151" y="30" width="15" height="15" fill="black"/>
<rect x="136" y="30" width="15" height="15" fill="black"/>
<rect x="121" y="30" width="15" height="15" fill="black"/>
<rect x="106" y="30" width="15" height="15" fill="black"/>
<rect x="91" y="30" width="15" height="15" fill="black"/>
<rect x="76" y="30" width="15" height="15" fill="black"/>
<rect x="61" y="30" width="15" height="15" fill="black"/>
<rect x="46" y="30" width="15" height="15" fill="black"/>
<rect x="31" y="45" width="15" height="15" fill="black"/>
<rect x="31" y="60" width="15" height="15" fill="black"/>
<rect x="31" y="75" width="15" height="15" fill="black"/>
<rect x="31" y="90" width="15" height="15" fill="black"/>
<rect x="31" y="105" width="15" height="15" fill="black"/>
<rect x="31" y="120" width="15" height="15" fill="black"/>
<rect x="31" y="135" width="15" height="15" fill="black"/>
<rect x="31" y="150" width="15" height="15" fill="black"/>
<rect x="61" y="165" width="15" height="15" fill="black"/>
<rect x="76" y="180" width="15" height="15" fill="black"/>
<rect x="106" y="195" width="15" height="15" fill="#D0D0D0"/>
<rect x="121" y="180" width="15" height="15" fill="#D0D0D0"/>
<rect x="136" y="165" width="15" height="15" fill="#D0D0D0"/>
<rect x="151" y="150" width="15" height="15" fill="#D0D0D0"/>
<rect x="166" y="135" width="15" height="15" fill="#D0D0D0"/>
<rect x="181" y="120" width="15" height="15" fill="#D0D0D0"/>
<rect x="46" y="240" width="15" height="15" fill="#D0D0D0"/>
<rect x="61" y="240" width="15" height="15" fill="#D0D0D0"/>
<rect x="76" y="240" width="15" height="15" fill="#D0D0D0"/>
<rect x="91" y="240" width="15" height="15" fill="#D0D0D0"/>
<rect x="106" y="240" width="15" height="15" fill="#D0D0D0"/>
<rect x="121" y="240" width="15" height="15" fill="#D0D0D0"/>
<rect x="136" y="240" width="15" height="15" fill="#D0D0D0"/>
<rect x="151" y="240" width="15" height="15" fill="#D0D0D0"/>
<rect x="166" y="240" width="15" height="15" fill="#D0D0D0"/>
<rect x="181" y="240" width="15" height="15" fill="#D0D0D0"/>
<rect x="196" y="240" width="15" height="15" fill="#D0D0D0"/>
<rect x="211" y="240" width="15" height="15" fill="#D0D0D0"/>
<rect x="226" y="225" width="15" height="15" fill="#D0D0D0"/>
<rect x="241" y="210" width="15" height="15" fill="#D0D0D0"/>
<rect x="241" y="195" width="15" height="15" fill="#D0D0D0"/>
<rect x="241" y="180" width="15" height="15" fill="#D0D0D0"/>
<rect x="241" y="165" width="15" height="15" fill="#D0D0D0"/>
<rect x="241" y="150" width="15" height="15" fill="#D0D0D0"/>
<rect x="241" y="135" width="15" height="15" fill="#D0D0D0"/>
<rect x="241" y="120" width="15" height="15" fill="#D0D0D0"/>
<rect x="241" y="105" width="15" height="15" fill="#D0D0D0"/>
<rect x="241" y="90" width="15" height="15" fill="#D0D0D0"/>
<rect x="241" y="75" width="15" height="15" fill="#D0D0D0"/>
<rect x="241" y="60" width="15" height="15" fill="#D0D0D0"/>
<rect x="241" y="45" width="15" height="15" fill="#D0D0D0"/>
<rect x="91" y="195" width="15" height="15" fill="black"/>
<rect x="106" y="180" width="15" height="15" fill="black"/>
<rect x="121" y="165" width="15" height="15" fill="black"/>
<rect x="136" y="150" width="15" height="15" fill="black"/>
<rect x="151" y="135" width="15" height="15" fill="black"/>
<rect x="166" y="120" width="15" height="15" fill="black"/>
<rect x="181" y="105" width="15" height="15" fill="black"/>
</svg>
