<svg width="386" height="96" viewBox="0 0 386 96" fill="none" xmlns="http://www.w3.org/2000/svg">
<path d="M5.33333 56H0V61.3333H5.33333V56Z" fill="white"/>
<path d="M5.33333 61.3333H0V66.6666H5.33333V61.3333Z" fill="white"/>
<path d="M5.33333 66.6667H0V72H5.33333V66.6667Z" fill="white"/>
<path d="M5.33333 72H0V77.3333H5.33333V72Z" fill="white"/>
<path d="M10.6666 77.3333H5.33325V82.6666H10.6666V77.3333Z" fill="white"/>
<path d="M16.0001 77.3333H10.6667V82.6666H16.0001V77.3333Z" fill="white"/>
<path d="M21.3333 77.3333H16V82.6666H21.3333V77.3333Z" fill="white"/>
<path d="M26.6666 77.3333H21.3333V82.6666H26.6666V77.3333Z" fill="white"/>
<path d="M32.0001 77.3333H26.6667V82.6666H32.0001V77.3333Z" fill="white"/>
<path d="M37.3333 77.3333H32V82.6666H37.3333V77.3333Z" fill="white"/>
<path d="M42.6666 77.3333H37.3333V82.6666H42.6666V77.3333Z" fill="white"/>
<path d="M48.0001 77.3333H42.6667V82.6666H48.0001V77.3333Z" fill="white"/>
<path d="M53.3333 77.3333H48V82.6666H53.3333V77.3333Z" fill="white"/>
<path d="M58.6666 77.3333H53.3333V82.6666H58.6666V77.3333Z" fill="white"/>
<path d="M64.0001 77.3333H58.6667V82.6666H64.0001V77.3333Z" fill="white"/>
<path d="M69.3333 77.3333H64V82.6666H69.3333V77.3333Z" fill="white"/>
<path d="M74.6666 72H69.3333V77.3333H74.6666V72Z" fill="white"/>
<path d="M74.6666 66.6667H69.3333V72H74.6666V66.6667Z" fill="white"/>
<path d="M74.6666 61.3333H69.3333V66.6666H74.6666V61.3333Z" fill="white"/>
<path d="M74.6666 56H69.3333V61.3333H74.6666V56Z" fill="white"/>
<path d="M74.6666 50.6667H69.3333V56H74.6666V50.6667Z" fill="white"/>
<path d="M74.6666 45.3333H69.3333V50.6666H74.6666V45.3333Z" fill="white"/>
<path d="M74.6666 40H69.3333V45.3333H74.6666V40Z" fill="white"/>
<path d="M74.6666 34.6667H69.3333V40H74.6666V34.6667Z" fill="white"/>
<path d="M74.6666 29.3333H69.3333V34.6666H74.6666V29.3333Z" fill="white"/>
<path d="M74.6666 24H69.3333V29.3333H74.6666V24Z" fill="white"/>
<path d="M74.6666 18.6667H69.3333V24H74.6666V18.6667Z" fill="white"/>
<path d="M74.6666 13.3333H69.3333V18.6666H74.6666V13.3333Z" fill="white"/>
<path d="M69.3333 8H64V13.3333H69.3333V8Z" fill="white"/>
<path d="M64.0001 8H58.6667V13.3333H64.0001V8Z" fill="white"/>
<path d="M58.6666 8H53.3333V13.3333H58.6666V8Z" fill="white"/>
<path d="M53.3333 8H48V13.3333H53.3333V8Z" fill="white"/>
<path d="M48.0001 8H42.6667V13.3333H48.0001V8Z" fill="white"/>
<path d="M42.6666 8H37.3333V13.3333H42.6666V8Z" fill="white"/>
<path d="M37.3333 8H32V13.3333H37.3333V8Z" fill="white"/>
<path d="M32.0001 8H26.6667V13.3333H32.0001V8Z" fill="white"/>
<path d="M26.6666 8H21.3333V13.3333H26.6666V8Z" fill="white"/>
<path d="M21.3333 8H16V13.3333H21.3333V8Z" fill="white"/>
<path d="M16.0001 8H10.6667V13.3333H16.0001V8Z" fill="white"/>
<path d="M10.6666 8H5.33325V13.3333H10.6666V8Z" fill="white"/>
<path d="M5.33333 13.3333H0V18.6666H5.33333V13.3333Z" fill="white"/>
<path d="M5.33333 18.6667H0V24H5.33333V18.6667Z" fill="white"/>
<path d="M5.33333 24H0V29.3333H5.33333V24Z" fill="white"/>
<path d="M5.33333 29.3333H0V34.6666H5.33333V29.3333Z" fill="white"/>
<path d="M5.33333 34.6667H0V40H5.33333V34.6667Z" fill="white"/>
<path d="M5.33333 40H0V45.3333H5.33333V40Z" fill="white"/>
<path d="M5.33333 45.3333H0V50.6666H5.33333V45.3333Z" fill="white"/>
<path d="M5.33333 50.6667H0V56H5.33333V50.6667Z" fill="white"/>
<path d="M16.0001 56H10.6667V61.3333H16.0001V56Z" fill="white"/>
<path d="M21.3333 61.3333H16V66.6666H21.3333V61.3333Z" fill="white"/>
<path d="M32.0001 66.6667H26.6667V72H32.0001V66.6667Z" fill="#808080"/>
<path d="M37.3333 61.3333H32V66.6666H37.3333V61.3333Z" fill="#808080"/>
<path d="M42.6666 56H37.3333V61.3333H42.6666V56Z" fill="#808080"/>
<path d="M48.0001 50.6667H42.6667V56H48.0001V50.6667Z" fill="#808080"/>
<path d="M53.3333 45.3333H48V50.6666H53.3333V45.3333Z" fill="#808080"/>
<path d="M58.6666 40H53.3333V45.3333H58.6666V40Z" fill="#808080"/>
<path d="M10.6666 82.6667H5.33325V88H10.6666V82.6667Z" fill="#808080"/>
<path d="M16.0001 82.6667H10.6667V88H16.0001V82.6667Z" fill="#808080"/>
<path d="M21.3333 82.6667H16V88H21.3333V82.6667Z" fill="#808080"/>
<path d="M26.6666 82.6667H21.3333V88H26.6666V82.6667Z" fill="#808080"/>
<path d="M32.0001 82.6667H26.6667V88H32.0001V82.6667Z" fill="#808080"/>
<path d="M37.3333 82.6667H32V88H37.3333V82.6667Z" fill="#808080"/>
<path d="M42.6666 82.6667H37.3333V88H42.6666V82.6667Z" fill="#808080"/>
<path d="M48.0001 82.6667H42.6667V88H48.0001V82.6667Z" fill="#808080"/>
<path d="M53.3333 82.6667H48V88H53.3333V82.6667Z" fill="#808080"/>
<path d="M58.6666 82.6667H53.3333V88H58.6666V82.6667Z" fill="#808080"/>
<path d="M64.0001 82.6667H58.6667V88H64.0001V82.6667Z" fill="#808080"/>
<path d="M69.3333 82.6667H64V88H69.3333V82.6667Z" fill="#808080"/>
<path d="M74.6666 77.3333H69.3333V82.6666H74.6666V77.3333Z" fill="#808080"/>
<path d="M80.0001 72H74.6667V77.3333H80.0001V72Z" fill="#808080"/>
<path d="M80.0001 66.6667H74.6667V72H80.0001V66.6667Z" fill="#808080"/>
<path d="M80.0001 61.3333H74.6667V66.6666H80.0001V61.3333Z" fill="#808080"/>
<path d="M80.0001 56H74.6667V61.3333H80.0001V56Z" fill="#808080"/>
<path d="M80.0001 50.6667H74.6667V56H80.0001V50.6667Z" fill="#808080"/>
<path d="M80.0001 45.3333H74.6667V50.6666H80.0001V45.3333Z" fill="#808080"/>
<path d="M80.0001 40H74.6667V45.3333H80.0001V40Z" fill="#808080"/>
<path d="M80.0001 34.6667H74.6667V40H80.0001V34.6667Z" fill="#808080"/>
<path d="M80.0001 29.3333H74.6667V34.6666H80.0001V29.3333Z" fill="#808080"/>
<path d="M80.0001 24H74.6667V29.3333H80.0001V24Z" fill="#808080"/>
<path d="M80.0001 18.6667H74.6667V24H80.0001V18.6667Z" fill="#808080"/>
<path d="M80.0001 13.3333H74.6667V18.6666H80.0001V13.3333Z" fill="#808080"/>
<path d="M26.6666 66.6667H21.3333V72H26.6666V66.6667Z" fill="white"/>
<path d="M32.0001 61.3333H26.6667V66.6666H32.0001V61.3333Z" fill="white"/>
<path d="M37.3333 56H32V61.3333H37.3333V56Z" fill="white"/>
<path d="M42.6666 50.6667H37.3333V56H42.6666V50.6667Z" fill="white"/>
<path d="M48.0001 45.3333H42.6667V50.6666H48.0001V45.3333Z" fill="white"/>
<path d="M53.3333 40H48V45.3333H53.3333V40Z" fill="white"/>
<path d="M58.6666 34.6667H53.3333V40H58.6666V34.6667Z" fill="white"/>
<path d="M150.944 34.76C150.944 36.232 150.816 37.512 150.56 38.6C150.816 39.624 150.944 40.904 150.944 42.44C150.944 43.912 150.816 45.192 150.56 46.28H146.72C146.976 47.304 147.104 48.584 147.104 50.12C147.104 51.592 146.976 52.872 146.72 53.96H127.52C127.776 54.984 127.904 56.264 127.904 57.8C127.904 59.272 127.776 60.552 127.52 61.64C127.776 62.664 127.904 63.944 127.904 65.48C127.904 66.952 127.776 68.232 127.52 69.32C127.776 70.344 127.904 71.624 127.904 73.16C127.904 74.632 127.776 75.912 127.52 77H119.84C119.584 75.912 119.456 74.632 119.456 73.16C119.456 71.624 119.584 70.344 119.84 69.32C119.584 68.232 119.456 66.952 119.456 65.48C119.456 63.944 119.584 62.664 119.84 61.64C119.584 60.552 119.456 59.272 119.456 57.8C119.456 56.264 119.584 54.984 119.84 53.96C119.584 52.872 119.456 51.592 119.456 50.12C119.456 48.584 119.584 47.304 119.84 46.28C119.584 45.192 119.456 43.912 119.456 42.44C119.456 40.904 119.584 39.624 119.84 38.6C119.584 37.512 119.456 36.232 119.456 34.76C119.456 33.224 119.584 31.944 119.84 30.92C119.584 29.832 119.456 28.552 119.456 27.08C119.456 25.544 119.584 24.264 119.84 23.24H146.72C146.976 24.264 147.104 25.544 147.104 27.08C147.104 28.552 146.976 29.832 146.72 30.92H150.56C150.816 31.944 150.944 33.224 150.944 34.76ZM142.88 46.28C142.624 45.192 142.496 43.912 142.496 42.44C142.496 40.904 142.624 39.624 142.88 38.6C142.624 37.512 142.496 36.232 142.496 34.76C142.496 33.224 142.624 31.944 142.88 30.92H127.52C127.776 31.944 127.904 33.224 127.904 34.76C127.904 36.232 127.776 37.512 127.52 38.6C127.776 39.624 127.904 40.904 127.904 42.44C127.904 43.912 127.776 45.192 127.52 46.28H142.88ZM169.798 30.92C169.542 29.832 169.414 28.552 169.414 27.08C169.414 25.544 169.542 24.264 169.798 23.24H177.478C177.734 24.264 177.862 25.544 177.862 27.08C177.862 28.552 177.734 29.832 177.478 30.92H169.798ZM185.158 69.32C185.414 70.344 185.542 71.624 185.542 73.16C185.542 74.632 185.414 75.912 185.158 77H162.118C161.862 75.912 161.734 74.632 161.734 73.16C161.734 71.624 161.862 70.344 162.118 69.32H169.798C169.542 68.232 169.414 66.952 169.414 65.48C169.414 63.944 169.542 62.664 169.798 61.64C169.542 60.552 169.414 59.272 169.414 57.8C169.414 56.264 169.542 54.984 169.798 53.96C169.542 52.872 169.414 51.592 169.414 50.12C169.414 48.584 169.542 47.304 169.798 46.28H164.038C163.782 45.192 163.654 43.912 163.654 42.44C163.654 40.904 163.782 39.624 164.038 38.6H177.478C177.734 39.624 177.862 40.904 177.862 42.44C177.862 43.912 177.734 45.192 177.478 46.28C177.734 47.304 177.862 48.584 177.862 50.12C177.862 51.592 177.734 52.872 177.478 53.96C177.734 54.984 177.862 56.264 177.862 57.8C177.862 59.272 177.734 60.552 177.478 61.64C177.734 62.664 177.862 63.944 177.862 65.48C177.862 66.952 177.734 68.232 177.478 69.32H185.158ZM225.515 69.32C225.771 70.344 225.899 71.624 225.899 73.16C225.899 74.632 225.771 75.912 225.515 77H217.835C217.579 75.912 217.451 74.632 217.451 73.16C217.451 71.624 217.579 70.344 217.835 69.32H214.955C214.699 68.232 214.571 66.952 214.571 65.48C214.571 63.944 214.699 62.664 214.955 61.64H210.155C210.411 62.664 210.539 63.944 210.539 65.48C210.539 66.952 210.411 68.232 210.155 69.32H206.315C206.571 70.344 206.699 71.624 206.699 73.16C206.699 74.632 206.571 75.912 206.315 77H198.635C198.379 75.912 198.251 74.632 198.251 73.16C198.251 71.624 198.379 70.344 198.635 69.32H202.475C202.219 68.232 202.091 66.952 202.091 65.48C202.091 63.944 202.219 62.664 202.475 61.64H206.315C206.059 60.552 205.931 59.272 205.931 57.8C205.931 56.264 206.059 54.984 206.315 53.96H202.475C202.219 52.872 202.091 51.592 202.091 50.12C202.091 48.584 202.219 47.304 202.475 46.28H198.635C198.379 45.192 198.251 43.912 198.251 42.44C198.251 40.904 198.379 39.624 198.635 38.6H206.315C206.571 39.624 206.699 40.904 206.699 42.44C206.699 43.912 206.571 45.192 206.315 46.28H210.155C210.411 47.304 210.539 48.584 210.539 50.12C210.539 51.592 210.411 52.872 210.155 53.96H214.955C214.699 52.872 214.571 51.592 214.571 50.12C214.571 48.584 214.699 47.304 214.955 46.28H217.835C217.579 45.192 217.451 43.912 217.451 42.44C217.451 40.904 217.579 39.624 217.835 38.6H225.515C225.771 39.624 225.899 40.904 225.899 42.44C225.899 43.912 225.771 45.192 225.515 46.28H222.635C222.891 47.304 223.019 48.584 223.019 50.12C223.019 51.592 222.891 52.872 222.635 53.96H217.835C218.091 54.984 218.219 56.264 218.219 57.8C218.219 59.272 218.091 60.552 217.835 61.64H222.635C222.891 62.664 223.019 63.944 223.019 65.48C223.019 66.952 222.891 68.232 222.635 69.32H225.515ZM265.873 46.28C266.129 47.304 266.257 48.584 266.257 50.12C266.257 51.592 266.129 52.872 265.873 53.96C266.129 54.984 266.257 56.264 266.257 57.8C266.257 59.272 266.129 60.552 265.873 61.64H262.033C262.289 62.664 262.417 63.944 262.417 65.48C262.417 66.952 262.289 68.232 262.033 69.32H258.193C258.449 70.344 258.577 71.624 258.577 73.16C258.577 74.632 258.449 75.912 258.193 77H235.153C234.897 75.912 234.769 74.632 234.769 73.16C234.769 71.624 234.897 70.344 235.153 69.32C234.897 68.232 234.769 66.952 234.769 65.48C234.769 63.944 234.897 62.664 235.153 61.64C234.897 60.552 234.769 59.272 234.769 57.8C234.769 56.264 234.897 54.984 235.153 53.96C234.897 52.872 234.769 51.592 234.769 50.12C234.769 48.584 234.897 47.304 235.153 46.28C234.897 45.192 234.769 43.912 234.769 42.44C234.769 40.904 234.897 39.624 235.153 38.6C234.897 37.512 234.769 36.232 234.769 34.76C234.769 33.224 234.897 31.944 235.153 30.92C234.897 29.832 234.769 28.552 234.769 27.08C234.769 25.544 234.897 24.264 235.153 23.24H258.193C258.449 24.264 258.577 25.544 258.577 27.08C258.577 28.552 258.449 29.832 258.193 30.92H262.033C262.289 31.944 262.417 33.224 262.417 34.76C262.417 36.232 262.289 37.512 262.033 38.6H265.873C266.129 39.624 266.257 40.904 266.257 42.44C266.257 43.912 266.129 45.192 265.873 46.28ZM258.193 61.64C257.937 60.552 257.809 59.272 257.809 57.8C257.809 56.264 257.937 54.984 258.193 53.96C257.937 52.872 257.809 51.592 257.809 50.12C257.809 48.584 257.937 47.304 258.193 46.28C257.937 45.192 257.809 43.912 257.809 42.44C257.809 40.904 257.937 39.624 258.193 38.6H254.353C254.097 37.512 253.969 36.232 253.969 34.76C253.969 33.224 254.097 31.944 254.353 30.92H242.833C243.089 31.944 243.217 33.224 243.217 34.76C243.217 36.232 243.089 37.512 242.833 38.6C243.089 39.624 243.217 40.904 243.217 42.44C243.217 43.912 243.089 45.192 242.833 46.28C243.089 47.304 243.217 48.584 243.217 50.12C243.217 51.592 243.089 52.872 242.833 53.96C243.089 54.984 243.217 56.264 243.217 57.8C243.217 59.272 243.089 60.552 242.833 61.64C243.089 62.664 243.217 63.944 243.217 65.48C243.217 66.952 243.089 68.232 242.833 69.32H254.353C254.097 68.232 253.969 66.952 253.969 65.48C253.969 63.944 254.097 62.664 254.353 61.64H258.193ZM304.694 57.8C304.694 59.272 304.566 60.552 304.31 61.64H301.43C301.686 62.664 301.814 63.944 301.814 65.48C301.814 66.952 301.686 68.232 301.43 69.32H296.63C296.886 70.344 297.014 71.624 297.014 73.16C297.014 74.632 296.886 75.912 296.63 77H281.27C281.014 75.912 280.886 74.632 280.886 73.16C280.886 71.624 281.014 70.344 281.27 69.32H276.47C276.214 68.232 276.086 66.952 276.086 65.48C276.086 63.944 276.214 62.664 276.47 61.64H273.59C273.334 60.552 273.206 59.272 273.206 57.8C273.206 56.264 273.334 54.984 273.59 53.96H276.47C276.214 52.872 276.086 51.592 276.086 50.12C276.086 48.584 276.214 47.304 276.47 46.28H281.27C281.014 45.192 280.886 43.912 280.886 42.44C280.886 40.904 281.014 39.624 281.27 38.6H296.63C296.886 39.624 297.014 40.904 297.014 42.44C297.014 43.912 296.886 45.192 296.63 46.28H301.43C301.686 47.304 301.814 48.584 301.814 50.12C301.814 51.592 301.686 52.872 301.43 53.96H304.31C304.566 54.984 304.694 56.264 304.694 57.8ZM296.63 61.64C296.374 60.552 296.246 59.272 296.246 57.8C296.246 56.264 296.374 54.984 296.63 53.96H293.75C293.494 52.872 293.366 51.592 293.366 50.12C293.366 48.584 293.494 47.304 293.75 46.28H284.15C284.406 47.304 284.534 48.584 284.534 50.12C284.534 51.592 284.406 52.872 284.15 53.96H281.27C281.526 54.984 281.654 56.264 281.654 57.8C281.654 59.272 281.526 60.552 281.27 61.64H284.15C284.406 62.664 284.534 63.944 284.534 65.48C284.534 66.952 284.406 68.232 284.15 69.32H293.75C293.494 68.232 293.366 66.952 293.366 65.48C293.366 63.944 293.494 62.664 293.75 61.64H296.63ZM319.132 42.44C319.132 43.912 319.004 45.192 318.748 46.28H322.588C322.844 47.304 322.972 48.584 322.972 50.12C322.972 51.592 322.844 52.872 322.588 53.96H319.708C319.964 54.984 320.092 56.264 320.092 57.8C320.092 59.272 319.964 60.552 319.708 61.64C319.964 62.664 320.092 63.944 320.092 65.48C320.092 66.952 319.964 68.232 319.708 69.32C319.964 70.344 320.092 71.624 320.092 73.16C320.092 74.632 319.964 75.912 319.708 77H312.028C311.772 75.912 311.644 74.632 311.644 73.16C311.644 71.624 311.772 70.344 312.028 69.32C311.772 68.232 311.644 66.952 311.644 65.48C311.644 63.944 311.772 62.664 312.028 61.64C311.772 60.552 311.644 59.272 311.644 57.8C311.644 56.264 311.772 54.984 312.028 53.96C311.772 52.872 311.644 51.592 311.644 50.12C311.644 48.584 311.772 47.304 312.028 46.28C311.772 45.192 311.644 43.912 311.644 42.44C311.644 40.904 311.772 39.624 312.028 38.6H318.748C319.004 39.624 319.132 40.904 319.132 42.44ZM342.748 53.96C343.004 54.984 343.132 56.264 343.132 57.8C343.132 59.272 343.004 60.552 342.748 61.64C343.004 62.664 343.132 63.944 343.132 65.48C343.132 66.952 343.004 68.232 342.748 69.32C343.004 70.344 343.132 71.624 343.132 73.16C343.132 74.632 343.004 75.912 342.748 77H335.068C334.812 75.912 334.684 74.632 334.684 73.16C334.684 71.624 334.812 70.344 335.068 69.32C334.812 68.232 334.684 66.952 334.684 65.48C334.684 63.944 334.812 62.664 335.068 61.64C334.812 60.552 334.684 59.272 334.684 57.8C334.684 56.264 334.812 54.984 335.068 53.96C334.812 52.872 334.684 51.592 334.684 50.12C334.684 48.584 334.812 47.304 335.068 46.28H322.588C322.332 45.192 322.204 43.912 322.204 42.44C322.204 40.904 322.332 39.624 322.588 38.6H337.948C338.204 39.624 338.332 40.904 338.332 42.44C338.332 43.912 338.204 45.192 337.948 46.28H342.748C343.004 47.304 343.132 48.584 343.132 50.12C343.132 51.592 343.004 52.872 342.748 53.96ZM381.569 50.12C381.569 51.592 381.441 52.872 381.185 53.96C381.441 54.984 381.569 56.264 381.569 57.8C381.569 59.272 381.441 60.552 381.185 61.64H361.025C361.281 62.664 361.409 63.944 361.409 65.48C361.409 66.952 361.281 68.232 361.025 69.32H377.345C377.601 70.344 377.729 71.624 377.729 73.16C377.729 74.632 377.601 75.912 377.345 77H358.145C357.889 75.912 357.761 74.632 357.761 73.16C357.761 71.624 357.889 70.344 358.145 69.32H353.345C353.089 68.232 352.961 66.952 352.961 65.48C352.961 63.944 353.089 62.664 353.345 61.64H350.465C350.209 60.552 350.081 59.272 350.081 57.8C350.081 56.264 350.209 54.984 350.465 53.96H353.345C353.089 52.872 352.961 51.592 352.961 50.12C352.961 48.584 353.089 47.304 353.345 46.28H358.145C357.889 45.192 357.761 43.912 357.761 42.44C357.761 40.904 357.889 39.624 358.145 38.6H377.345C377.601 39.624 377.729 40.904 377.729 42.44C377.729 43.912 377.601 45.192 377.345 46.28H381.185C381.441 47.304 381.569 48.584 381.569 50.12ZM373.505 53.96C373.249 52.872 373.121 51.592 373.121 50.12C373.121 48.584 373.249 47.304 373.505 46.28H361.025C361.281 47.304 361.409 48.584 361.409 50.12C361.409 51.592 361.281 52.872 361.025 53.96H373.505Z" fill="white"/>
</svg>
