<svg width="225" height="225" viewBox="0 0 225 225" fill="none" xmlns="http://www.w3.org/2000/svg">
<path d="M15 135H0V150H15V135Z" fill="white"/>
<path d="M15 150H0V165H15V150Z" fill="white"/>
<path d="M15 165H0V180H15V165Z" fill="white"/>
<path d="M15 180H0V195H15V180Z" fill="white"/>
<path d="M30 195H15V210H30V195Z" fill="white"/>
<path d="M45 195H30V210H45V195Z" fill="white"/>
<path d="M60 195H45V210H60V195Z" fill="white"/>
<path d="M75 195H60V210H75V195Z" fill="white"/>
<path d="M90 195H75V210H90V195Z" fill="white"/>
<path d="M105 195H90V210H105V195Z" fill="white"/>
<path d="M120 195H105V210H120V195Z" fill="white"/>
<path d="M135 195H120V210H135V195Z" fill="white"/>
<path d="M150 195H135V210H150V195Z" fill="white"/>
<path d="M165 195H150V210H165V195Z" fill="white"/>
<path d="M180 195H165V210H180V195Z" fill="white"/>
<path d="M195 195H180V210H195V195Z" fill="white"/>
<path d="M210 180H195V195H210V180Z" fill="white"/>
<path d="M210 165H195V180H210V165Z" fill="white"/>
<path d="M210 150H195V165H210V150Z" fill="white"/>
<path d="M210 135H195V150H210V135Z" fill="white"/>
<path d="M210 120H195V135H210V120Z" fill="white"/>
<path d="M210 105H195V120H210V105Z" fill="white"/>
<path d="M210 90H195V105H210V90Z" fill="white"/>
<path d="M210 75H195V90H210V75Z" fill="white"/>
<path d="M210 60H195V75H210V60Z" fill="white"/>
<path d="M210 45H195V60H210V45Z" fill="white"/>
<path d="M210 30H195V45H210V30Z" fill="white"/>
<path d="M210 15H195V30H210V15Z" fill="white"/>
<path d="M195 0H180V15H195V0Z" fill="white"/>
<path d="M180 0H165V15H180V0Z" fill="white"/>
<path d="M165 0H150V15H165V0Z" fill="white"/>
<path d="M150 0H135V15H150V0Z" fill="white"/>
<path d="M135 0H120V15H135V0Z" fill="white"/>
<path d="M120 0H105V15H120V0Z" fill="white"/>
<path d="M105 0H90V15H105V0Z" fill="white"/>
<path d="M90 0H75V15H90V0Z" fill="white"/>
<path d="M75 0H60V15H75V0Z" fill="white"/>
<path d="M60 0H45V15H60V0Z" fill="white"/>
<path d="M45 0H30V15H45V0Z" fill="white"/>
<path d="M30 0H15V15H30V0Z" fill="white"/>
<path d="M15 15H0V30H15V15Z" fill="white"/>
<path d="M15 30H0V45H15V30Z" fill="white"/>
<path d="M15 45H0V60H15V45Z" fill="white"/>
<path d="M15 60H0V75H15V60Z" fill="white"/>
<path d="M15 75H0V90H15V75Z" fill="white"/>
<path d="M15 90H0V105H15V90Z" fill="white"/>
<path d="M15 105H0V120H15V105Z" fill="white"/>
<path d="M15 120H0V135H15V120Z" fill="white"/>
<path d="M45 135H30V150H45V135Z" fill="white"/>
<path d="M60 150H45V165H60V150Z" fill="white"/>
<path d="M90 165H75V180H90V165Z" fill="#808080"/>
<path d="M105 150H90V165H105V150Z" fill="#808080"/>
<path d="M120 135H105V150H120V135Z" fill="#808080"/>
<path d="M135 120H120V135H135V120Z" fill="#808080"/>
<path d="M150 105H135V120H150V105Z" fill="#808080"/>
<path d="M165 90H150V105H165V90Z" fill="#808080"/>
<path d="M30 210H15V225H30V210Z" fill="#808080"/>
<path d="M45 210H30V225H45V210Z" fill="#808080"/>
<path d="M60 210H45V225H60V210Z" fill="#808080"/>
<path d="M75 210H60V225H75V210Z" fill="#808080"/>
<path d="M90 210H75V225H90V210Z" fill="#808080"/>
<path d="M105 210H90V225H105V210Z" fill="#808080"/>
<path d="M120 210H105V225H120V210Z" fill="#808080"/>
<path d="M135 210H120V225H135V210Z" fill="#808080"/>
<path d="M150 210H135V225H150V210Z" fill="#808080"/>
<path d="M165 210H150V225H165V210Z" fill="#808080"/>
<path d="M180 210H165V225H180V210Z" fill="#808080"/>
<path d="M195 210H180V225H195V210Z" fill="#808080"/>
<path d="M210 195H195V210H210V195Z" fill="#808080"/>
<path d="M225 180H210V195H225V180Z" fill="#808080"/>
<path d="M225 165H210V180H225V165Z" fill="#808080"/>
<path d="M225 150H210V165H225V150Z" fill="#808080"/>
<path d="M225 135H210V150H225V135Z" fill="#808080"/>
<path d="M225 120H210V135H225V120Z" fill="#808080"/>
<path d="M225 105H210V120H225V105Z" fill="#808080"/>
<path d="M225 90H210V105H225V90Z" fill="#808080"/>
<path d="M225 75H210V90H225V75Z" fill="#808080"/>
<path d="M225 60H210V75H225V60Z" fill="#808080"/>
<path d="M225 45H210V60H225V45Z" fill="#808080"/>
<path d="M225 30H210V45H225V30Z" fill="#808080"/>
<path d="M225 15H210V30H225V15Z" fill="#808080"/>
<path d="M75 165H60V180H75V165Z" fill="white"/>
<path d="M90 150H75V165H90V150Z" fill="white"/>
<path d="M105 135H90V150H105V135Z" fill="white"/>
<path d="M120 120H105V135H120V120Z" fill="white"/>
<path d="M135 105H120V120H135V105Z" fill="white"/>
<path d="M150 90H135V105H150V90Z" fill="white"/>
<path d="M165 75H150V90H165V75Z" fill="white"/>
</svg>

